<?xml version="1.0" encoding="UTF-8" standalone="no"?>
<!DOCTYPE svg PUBLIC "-//W3C//DTD SVG 1.1//EN" "http://www.w3.org/Graphics/SVG/1.1/DTD/svg11.dtd">
<svg width="100%" height="100%" viewBox="0 0 384 383" version="1.1" xmlns="http://www.w3.org/2000/svg" xmlns:xlink="http://www.w3.org/1999/xlink" xml:space="preserve" xmlns:serif="http://www.serif.com/" style="fill-rule:evenodd;clip-rule:evenodd;stroke-linejoin:round;stroke-miterlimit:2;">
    <g transform="matrix(1,0,0,1,-42562,-10271)">
        <g transform="matrix(8.33333,0,0,8.33333,36562.5,0)">
            <g transform="matrix(0,-1,-1,0,743,1236)">
                <path d="M-20,-20C-31.046,-20 -40,-11.046 -40,0C-40,11.046 -31.046,20 -20,20C-8.954,20 0,11.046 0,0C0,-11.046 -8.954,-20 -20,-20" style="fill:white;fill-rule:nonzero;"/>
            </g>
            <g transform="matrix(1,0,0,1,754.113,1245.83)">
                <path d="M0,19.342C0,20.019 -0.333,20.46 -1.003,20.46L-6.648,20.46L-6.648,11.998L-3.777,11.998L-3.342,8.371L-6.648,8.371L-6.648,6.498C-6.648,5.53 -6.389,4.757 -4.999,4.757L-3.022,4.757L-3.022,1.874C-3.626,1.832 -4.563,1.741 -5.79,1.741C-8.341,1.741 -10.275,3.301 -10.275,6.165L-10.275,8.384L-13.297,8.384L-13.297,12.01L-10.275,12.01L-10.275,20.472L-20.744,20.472C-21.42,20.472 -21.759,20.03 -21.759,19.354L-21.759,-0.387C-21.759,-1.063 -21.42,-1.891 -20.744,-1.891L-1.003,-1.891C-0.333,-1.891 0,-1.063 0,-0.387L0,19.342ZM-11.146,-13.297C-23.83,-13.297 -34.113,-3.013 -34.113,9.671C-34.113,22.356 -23.83,32.639 -11.146,32.639C1.54,32.639 11.823,22.356 11.823,9.671C11.823,-3.013 1.54,-13.297 -11.146,-13.297" style="fill:rgb(242,28,28);fill-rule:nonzero;"/>
            </g>
        </g>
    </g>
</svg>
