<?xml version="1.0" encoding="UTF-8" standalone="no"?>
<!DOCTYPE svg PUBLIC "-//W3C//DTD SVG 1.1//EN" "http://www.w3.org/Graphics/SVG/1.1/DTD/svg11.dtd">
<svg width="100%" height="100%" viewBox="0 0 383 383" version="1.1" xmlns="http://www.w3.org/2000/svg" xmlns:xlink="http://www.w3.org/1999/xlink" xml:space="preserve" xmlns:serif="http://www.serif.com/" style="fill-rule:evenodd;clip-rule:evenodd;stroke-linejoin:round;stroke-miterlimit:2;">
    <g transform="matrix(1,0,0,1,-43096,-10271)">
        <g transform="matrix(8.33333,0,0,8.33333,36562.5,0)">
            <g transform="matrix(-1,0,0,1,807.018,1278.45)">
                <path d="M0,-45.9C-12.675,-45.9 -22.95,-35.625 -22.95,-22.95C-22.95,-10.275 -12.675,0 0,0C12.675,0 22.95,-10.275 22.95,-22.95C22.95,-35.625 12.675,-45.9 0,-45.9" style="fill:rgb(242,28,28);fill-rule:nonzero;"/>
            </g>
            <g transform="matrix(1,0,0,1,816.598,1247.13)">
                <path d="M0,16.624C-0.003,17.006 -0.313,17.313 -0.695,17.313L-17.316,17.313C-17.697,17.323 -18.014,17.023 -18.023,16.643C-18.023,16.637 -18.024,16.631 -18.024,16.624L-18.024,6.234L-15.255,6.234C-15.596,6.882 -15.762,7.606 -15.739,8.338C-15.627,12.062 -12.519,14.989 -8.795,14.878C-5.228,14.771 -2.361,11.904 -2.254,8.338C-2.209,7.598 -2.397,6.862 -2.792,6.234L-0.018,6.234L0,16.624ZM-9.024,4.089C-6.687,4.089 -4.793,5.983 -4.793,8.319C-4.793,10.656 -6.687,12.551 -9.024,12.551C-11.361,12.551 -13.255,10.656 -13.255,8.319C-13.255,5.983 -11.361,4.089 -9.024,4.088C-9.002,4.088 -8.98,4.088 -8.958,4.089L-9.024,4.089ZM-4.188,0.691C-4.188,0.312 -3.88,0.003 -3.5,0.003L-1.42,0.003C-1.04,-0.001 -0.729,0.306 -0.725,0.686L-0.725,2.771C-0.725,3.155 -1.037,3.466 -1.42,3.466L-3.463,3.466C-3.847,3.466 -4.158,3.155 -4.158,2.771L-4.188,0.691ZM-0.562,-2.766L-17.419,-2.766C-18.872,-2.769 -20.051,-1.595 -20.055,-0.143L-20.055,16.781C-20.042,18.228 -18.865,19.393 -17.419,19.393L-0.562,19.393C0.891,19.393 2.07,18.217 2.073,16.764L2.073,-0.16C2.06,-1.605 0.883,-2.769 -0.562,-2.766" style="fill:white;fill-rule:nonzero;"/>
            </g>
        </g>
    </g>
</svg>
