<svg xmlns="http://www.w3.org/2000/svg" viewBox="0 0 172.03 72.79"><defs><style>.cls-1{fill:#383838;}.cls-2{fill:#f21c1c;}</style></defs><title>Asset 3</title><g id="Layer_2" data-name="Layer 2"><g id="Layer_1-2" data-name="Layer 1"><path class="cls-1" d="M16.56,72.33c-3.46,0-6.27-.09-9.36-2.12-4.34-2.82-7-8.35-7-14.35,0-8.16,5-14.3,12.6-14.3,2.58,0,4.84.79,5.9.79.51,0,.92-.33,1.48-.88l1.2,8.35-.28.09c-1.75-4-4.52-6.09-8.4-6.09-4.38,0-8,3.6-8,12a22.21,22.21,0,0,0,1.48,7c1.84,4.84,5.39,7.29,8.94,7.29,3.92,0,4.2-2,4.2-5V55.86c0-2.72-1.2-3.6-2.12-3.73l-.28-.05v-.32h8.77v.32l-.33.05c-.92.13-2,1-2,3.73V68.22c0,2.68,1.07,3.6,2,3.74l.33.05v.32Z"/><path class="cls-1" d="M28.64,72.33V72L29,72c1.75-.46,2.08-1.89,2.08-3.74V54.48c0-3-.74-4.06-2.45-4.24v-.33l5.12-.32a9.77,9.77,0,0,1,1.06,4.89c1.71-3.92,4.66-5.31,6.6-5.31h.92l-.83,4a4.14,4.14,0,0,0-2.08-.6c-2.39,0-4.61,2.26-4.61,7.61v8c0,1.9.37,3.37,2.12,3.74l.23.05v.32Z"/><path class="cls-1" d="M43.08,61.44c0-7.79,4.47-12.31,10.1-12.31,6.59,0,10,5.49,10,11.39,0,8-4.1,12.27-10.19,12.27C46.67,72.79,43.08,66.93,43.08,61.44Zm16-.32c0-5.35-2.22-9.92-6.18-9.92A5.19,5.19,0,0,0,49,53.37c-1.53,2-1.76,4.48-1.76,7.29,0,4.43,2.08,10.06,6.19,10.06C57,70.72,59,67.58,59,61.12Z"/><path class="cls-1" d="M83,72.75a2.79,2.79,0,0,0-1.43-.42c-.92,0-2,.42-3.6.42-7.06,0-11.07-5.36-11.07-11.91,0-6.82,4-11.71,10.8-11.71,1.75,0,3,.46,4.47.46a2.12,2.12,0,0,0,1.29-.42l.6,7.15-.32,0c-1-3.46-3.05-5.17-5.91-5.17-3.5,0-6.68,3.65-6.68,9.6,0,6.36,3.27,9.69,7.1,9.69,3.5,0,4.8-1.71,6.46-3.93l.27.1Z"/><path class="cls-1" d="M104.14,72.42a2.89,2.89,0,0,0-1.43-.41c-.83,0-2.35.69-4.24.69-6.55,0-11-4.89-11-11.9S92,49.17,97.32,49.17c3.83,0,7.1,2.63,8.12,7.62L91.55,61.44c.32,5.08,3.6,9,7.57,9,2.95,0,5.07-1.71,6.32-4.94h.32Zm-2.53-16.33C101.1,53.33,99.44,51,97,51c-3,0-5.31,3.05-5.4,8.31Z"/><path class="cls-1" d="M108.52,72.33V72l.37-.05c1.76-.46,2.08-1.89,2.08-3.74V54.48c0-3-.74-4.06-2.45-4.24v-.33l5.12-.32a9.77,9.77,0,0,1,1.06,4.89c1.71-3.92,4.66-5.31,6.6-5.31h.92l-.83,4a4.13,4.13,0,0,0-2.07-.6c-2.4,0-4.62,2.26-4.62,7.61v8c0,1.9.37,3.37,2.13,3.74l.23.05v.32Z"/><path class="cls-1" d="M124,72.33V72l.28-.05c1.75-.28,2.08-1.84,2.08-3.74V52.82c0-1.66-.24-2.91-2.08-2.91H124v-.32l6.09-.51V68.22c0,1.85.32,3.28,2.08,3.74l.27.05v.32Zm1.34-29.52c0-1.75,1-3.28,2.44-3.28s2.4,1.57,2.4,3.28S129.32,46,127.8,46,125.31,44.52,125.31,42.81Z"/><path class="cls-1" d="M152.06,72.42a2.89,2.89,0,0,0-1.43-.41c-.83,0-2.35.69-4.24.69-6.55,0-11-4.89-11-11.9s4.57-11.63,9.88-11.63c3.82,0,7.1,2.63,8.11,7.62l-13.88,4.65c.32,5.08,3.6,9,7.56,9,3,0,5.08-1.71,6.32-4.94h.33Zm-2.53-16.33C149,53.33,147.36,51,144.87,51c-3,0-5.31,3.05-5.4,8.31Z"/><path class="cls-1" d="M156.21,63.38l.32-.05c.88,5,3.46,7.34,6.79,7.34,2.76,0,5.12-1.94,5.12-4.52,0-6.32-11.44-4-11.44-10.84,0-3.74,3.22-6.18,7.1-6.18,1.84,0,3.14.74,4.29.74a1.84,1.84,0,0,0,1.38-.6l.69,7-.32.05c-1.24-3.65-3.23-5.35-5.72-5.35s-3.83,1.43-3.83,3c0,4.61,11.44,2.72,11.44,10.93,0,4.48-3.82,7.85-8.71,7.85-2.22,0-4.34-.88-5.31-.88-.6,0-.92.51-1.2.92Z"/><path class="cls-1" d="M0,31.09v-.32l.32-.05c1.8-.28,2-1.84,2-3.74v-22c0-1.9-.23-3.46-2-3.74L0,1.15V.78H16.1A1.89,1.89,0,0,0,17.94,0l1.53,9.23-.23.09A9.54,9.54,0,0,0,9.78,2.86c-3.32,0-3.41,1.71-3.41,3V9.32H9.92c2.86,0,3.23-1.11,3.6-2.72h.27l1.48,10.24-.28,0c-1.2-3.55-2.26-5.12-6-5.12H6.37V24.45c0,3.13.78,4.38,4.42,4.38,4.34,0,8.31-3.23,10.61-8.63l.23.05L18.73,31.6a1.81,1.81,0,0,0-1.34-.51Z"/><path class="cls-1" d="M37.87,31.09a6.78,6.78,0,0,1-1.34-3.74c-1.75,2.77-4,4.2-6.83,4.2-3.32,0-6-2.21-6-5.67,0-4.8,4.75-7.66,12.87-9.74v-2c0-2.63-1.29-4-3.83-4-2.86,0-5.9,1.84-7.29,6l-.23-.05.69-7.24a1.45,1.45,0,0,0,.88.46c1.43,0,3-1.47,7.47-1.47s6.09,2.44,6.09,6.78V25.09c0,3.32.56,5.35,2.36,5.68v.32ZM36.53,18c-5.07,1.15-8.63,4.1-8.63,7.56A3.06,3.06,0,0,0,31.09,29c2.53,0,5.44-2.17,5.44-8Z"/><path class="cls-1" d="M45.2,22.14l.32-.05c.88,5,3.46,7.34,6.78,7.34,2.77,0,5.12-1.94,5.12-4.52,0-6.32-11.44-4-11.44-10.84,0-3.74,3.23-6.18,7.11-6.18,1.84,0,3.13.74,4.29.74A1.86,1.86,0,0,0,58.76,8l.69,7-.32,0c-1.25-3.65-3.23-5.35-5.72-5.35s-3.83,1.43-3.83,3C49.58,17.34,61,15.45,61,23.66c0,4.48-3.83,7.84-8.72,7.84-2.21,0-4.33-.87-5.3-.87-.6,0-.92.51-1.2.92Z"/><path class="cls-1" d="M64.29,33.67l.23.1a5.07,5.07,0,0,0-.18,1.47c0,1.85,1.11,2.91,2.08,2.91,2.07,0,3.78-3.09,3.78-6.23a20.64,20.64,0,0,0-1.29-6.18L64.52,12.45c-.83-2.58-1.33-3.55-2.3-3.73l-.28-.05V8.35h7.47v.32A1.38,1.38,0,0,0,68,10.24a12.05,12.05,0,0,0,.51,2.54l4,13.56,4-13.89a11.57,11.57,0,0,0,.41-2.3,1.38,1.38,0,0,0-1.47-1.48h-.24V8.35h6.42v.32l-.23.05c-1.62.32-2.17,2.3-2.68,4.06L74.3,27.45c-3,9.82-4.24,13.93-8.16,13.93a5.37,5.37,0,0,1-4.2-1.8Z"/><path class="cls-2" d="M99.27,12.1c1.86-.75,2.08-3,3.91-3.25,6.37-.68,12.12,1.82,14,6.58,2,4.95-4.13,14.82-6,14.77a12.72,12.72,0,0,0-5.22.45c-1.8.73-.08,3.52-4.75,3.47-6.47-.07-12.24-1.7-14.2-6.56-2.18-5.42,1.16-12,7.61-15.84C95.58,11.18,98.23,12.52,99.27,12.1Z"/><path d="M99.25,12a4.85,4.85,0,0,0,2-1.92,4.37,4.37,0,0,1,1-1.07,2.85,2.85,0,0,1,1.42-.44,18.29,18.29,0,0,1,5.76.15,12.48,12.48,0,0,1,5.36,2.39,11.28,11.28,0,0,1,2,2.21,9.53,9.53,0,0,1,.71,1.34,5.08,5.08,0,0,1,.48,1.47,11.63,11.63,0,0,1-.85,5.79,29.23,29.23,0,0,1-2.58,5.12,18.21,18.21,0,0,1-1.72,2.31,4.22,4.22,0,0,1-1.16.95,1.19,1.19,0,0,1-.45.11h-.36l-.71,0a14,14,0,0,0-2.76.19,5.88,5.88,0,0,0-1.27.4,1.27,1.27,0,0,0-.66.85,6,6,0,0,1-.57,1.4,2.65,2.65,0,0,1-1.33,1,7.87,7.87,0,0,1-3,.36,26.08,26.08,0,0,1-5.76-.59,14.46,14.46,0,0,1-5.45-2.34,9.13,9.13,0,0,1-3.36-5,10.45,10.45,0,0,1,.27-6,14.11,14.11,0,0,1,3-5,20.35,20.35,0,0,1,4.46-3.62c.2-.13.4-.24.61-.36a1.53,1.53,0,0,1,.7-.27,5.75,5.75,0,0,1,1.44.19c.46.1.92.23,1.38.32A2.86,2.86,0,0,0,99.25,12Zm0,.12a2.81,2.81,0,0,1-1.44,0c-.47-.08-.93-.2-1.39-.3a5,5,0,0,0-1.38-.15,1.16,1.16,0,0,0-.59.26c-.2.13-.4.26-.59.4a18.23,18.23,0,0,0-4,3.88c-2.17,3-3.43,6.69-2.49,10.09a7.91,7.91,0,0,0,2.84,4.23,12.77,12.77,0,0,0,4.86,2.22,29.51,29.51,0,0,0,5.49.76,7.46,7.46,0,0,0,2.62-.17,1.7,1.7,0,0,0,.91-.62,5.31,5.31,0,0,0,.55-1.19,2.1,2.1,0,0,1,1.14-1.24,6.31,6.31,0,0,1,1.45-.37,14.1,14.1,0,0,1,2.9-.05l.71,0,.35,0a.64.64,0,0,0,.24-.06,3.87,3.87,0,0,0,1-.82,13.08,13.08,0,0,0,1.68-2.22,20.23,20.23,0,0,0,2.3-5.11,11.06,11.06,0,0,0,.43-5.35,7.93,7.93,0,0,0-1.14-2.34,10.32,10.32,0,0,0-1.8-1.94,13.47,13.47,0,0,0-4.8-2.44A16.7,16.7,0,0,0,103.66,9a2.23,2.23,0,0,0-1.29.27,3.84,3.84,0,0,0-1,1A5.23,5.23,0,0,1,99.3,12.16Z"/><path d="M99.76,5.45a19.68,19.68,0,0,1-.3,2.72L99,10.78q-.21,1.29-.36,2.58a7.6,7.6,0,0,0,.09,2.6,4,4,0,0,1-1.09-2.59,10.49,10.49,0,0,1,.09-2.8,14.35,14.35,0,0,1,.73-2.66A12,12,0,0,1,99.76,5.45Z"/><path d="M96,16.39a6.12,6.12,0,0,0,2.51-.28,23.49,23.49,0,0,0,2.4-1,4.3,4.3,0,0,1-2.2,1.61,4,4,0,0,1-1.41.16A2.59,2.59,0,0,1,96,16.39Z"/></g></g></svg>