<?xml version="1.0" encoding="UTF-8" standalone="no"?>
<!DOCTYPE svg PUBLIC "-//W3C//DTD SVG 1.1//EN" "http://www.w3.org/Graphics/SVG/1.1/DTD/svg11.dtd">
<svg width="100%" height="100%" viewBox="0 0 383 383" version="1.1" xmlns="http://www.w3.org/2000/svg" xmlns:xlink="http://www.w3.org/1999/xlink" xml:space="preserve" xmlns:serif="http://www.serif.com/" style="fill-rule:evenodd;clip-rule:evenodd;stroke-linejoin:round;stroke-miterlimit:2;">
    <g transform="matrix(1,0,0,1,-43630,-10271)">
        <g transform="matrix(8.33333,0,0,8.33333,36562.5,0)">
            <g transform="matrix(-1,0,0,1,871.05,1278.45)">
                <path d="M0,-45.9C-12.675,-45.9 -22.95,-35.625 -22.95,-22.95C-22.95,-10.275 -12.675,0 0,0C12.675,0 22.95,-10.275 22.95,-22.95C22.95,-35.625 12.675,-45.9 0,-45.9" style="fill:rgb(242,28,28);fill-rule:nonzero;"/>
            </g>
            <g transform="matrix(1,0,0,1,881.464,1264.45)">
                <path d="M0,-18.161C-0.91,-17.611 -1.908,-17.221 -2.95,-17.007C-3.816,-17.966 -5.048,-18.513 -6.34,-18.512C-8.938,-18.489 -11.023,-16.364 -11,-13.767C-11.003,-13.403 -10.963,-13.04 -10.879,-12.685C-14.638,-12.888 -18.127,-14.701 -20.454,-17.66C-21.691,-15.488 -21.07,-12.732 -19.021,-11.302C-19.76,-11.332 -20.481,-11.539 -21.125,-11.906L-21.125,-11.851C-21.172,-9.579 -19.6,-7.594 -17.377,-7.119C-17.771,-7.009 -18.177,-6.951 -18.586,-6.949C-18.881,-6.96 -19.174,-6.998 -19.462,-7.064C-18.879,-5.142 -17.13,-3.809 -15.123,-3.758C-16.757,-2.439 -18.794,-1.721 -20.895,-1.722C-21.265,-1.722 -21.634,-1.744 -22.001,-1.788C-19.888,-0.393 -17.412,0.351 -14.881,0.352C-6.34,0.352 -1.668,-6.901 -1.668,-13.199L-1.668,-13.804C-0.755,-14.48 0.029,-15.315 0.647,-16.269C-0.198,-15.884 -1.097,-15.631 -2.019,-15.52C-1.047,-16.126 -0.33,-17.065 0,-18.161" style="fill:white;fill-rule:nonzero;"/>
            </g>
        </g>
    </g>
</svg>
